<svg xmlns="http://www.w3.org/2000/svg" xmlns:xlink="http://www.w3.org/1999/xlink" width="480" zoomAndPan="magnify" viewBox="0 0 360 359.999987" height="480" preserveAspectRatio="xMidYMid meet" version="1.0"><defs><g/><clipPath id="3176062df4"><rect x="0" width="163" y="0" height="340"/></clipPath></defs><g transform="matrix(1, 0, 0, 1, 99, 0)"><g clip-path="url(#3176062df4)"><g fill="#ffffff" fill-opacity="1"><g transform="translate(0.298966, 320.2549)"><g><path d="M 26.828125 -1.859375 C 28.742188 -1.859375 30.414062 -2.550781 31.84375 -3.9375 C 33.28125 -5.332031 34 -7.03125 34 -9.03125 C 34 -10.945312 33.28125 -12.625 31.84375 -14.0625 C 30.414062 -15.5 28.742188 -16.21875 26.828125 -16.21875 C 24.816406 -16.21875 23.117188 -15.5 21.734375 -14.0625 C 20.347656 -12.625 19.65625 -10.945312 19.65625 -9.03125 C 19.65625 -7.03125 20.347656 -5.332031 21.734375 -3.9375 C 23.117188 -2.550781 24.816406 -1.859375 26.828125 -1.859375 Z M 44.765625 -1.859375 C 46.671875 -1.859375 48.34375 -2.550781 49.78125 -3.9375 C 51.21875 -5.332031 51.9375 -7.03125 51.9375 -9.03125 C 51.9375 -10.945312 51.21875 -12.625 49.78125 -14.0625 C 48.34375 -15.5 46.671875 -16.21875 44.765625 -16.21875 C 42.753906 -16.21875 41.054688 -15.5 39.671875 -14.0625 C 38.285156 -12.625 37.59375 -10.945312 37.59375 -9.03125 C 37.59375 -7.03125 38.285156 -5.332031 39.671875 -3.9375 C 41.054688 -2.550781 42.753906 -1.859375 44.765625 -1.859375 Z M 62.703125 -1.859375 C 64.609375 -1.859375 66.28125 -2.550781 67.71875 -3.9375 C 69.15625 -5.332031 69.875 -7.03125 69.875 -9.03125 C 69.875 -10.945312 69.15625 -12.625 67.71875 -14.0625 C 66.28125 -15.5 64.609375 -16.21875 62.703125 -16.21875 C 60.691406 -16.21875 58.988281 -15.5 57.59375 -14.0625 C 56.207031 -12.625 55.515625 -10.945312 55.515625 -9.03125 C 55.515625 -7.03125 56.207031 -5.332031 57.59375 -3.9375 C 58.988281 -2.550781 60.691406 -1.859375 62.703125 -1.859375 Z M 80.625 -1.859375 C 82.539062 -1.859375 84.210938 -2.550781 85.640625 -3.9375 C 87.078125 -5.332031 87.796875 -7.03125 87.796875 -9.03125 C 87.796875 -10.945312 87.078125 -12.625 85.640625 -14.0625 C 84.210938 -15.5 82.539062 -16.21875 80.625 -16.21875 C 78.613281 -16.21875 76.914062 -15.5 75.53125 -14.0625 C 74.144531 -12.625 73.453125 -10.945312 73.453125 -9.03125 C 73.453125 -7.03125 74.144531 -5.332031 75.53125 -3.9375 C 76.914062 -2.550781 78.613281 -1.859375 80.625 -1.859375 Z M 98.5625 -1.859375 C 100.476562 -1.859375 102.148438 -2.550781 103.578125 -3.9375 C 105.015625 -5.332031 105.734375 -7.03125 105.734375 -9.03125 C 105.734375 -10.945312 105.015625 -12.625 103.578125 -14.0625 C 102.148438 -15.5 100.476562 -16.21875 98.5625 -16.21875 C 96.550781 -16.21875 94.851562 -15.5 93.46875 -14.0625 C 92.082031 -12.625 91.390625 -10.945312 91.390625 -9.03125 C 91.390625 -7.03125 92.082031 -5.332031 93.46875 -3.9375 C 94.851562 -2.550781 96.550781 -1.859375 98.5625 -1.859375 Z M 116.5 -1.859375 C 118.40625 -1.859375 120.078125 -2.550781 121.515625 -3.9375 C 122.953125 -5.332031 123.671875 -7.03125 123.671875 -9.03125 C 123.671875 -10.945312 122.953125 -12.625 121.515625 -14.0625 C 120.078125 -15.5 118.40625 -16.21875 116.5 -16.21875 C 114.488281 -16.21875 112.789062 -15.5 111.40625 -14.0625 C 110.019531 -12.625 109.328125 -10.945312 109.328125 -9.03125 C 109.328125 -7.03125 110.019531 -5.332031 111.40625 -3.9375 C 112.789062 -2.550781 114.488281 -1.859375 116.5 -1.859375 Z M 8.890625 -19.796875 C 10.804688 -19.796875 12.476562 -20.488281 13.90625 -21.875 C 15.34375 -23.257812 16.0625 -24.957031 16.0625 -26.96875 C 16.0625 -28.882812 15.34375 -30.554688 13.90625 -31.984375 C 12.476562 -33.421875 10.804688 -34.140625 8.890625 -34.140625 C 6.878906 -34.140625 5.179688 -33.421875 3.796875 -31.984375 C 2.410156 -30.554688 1.71875 -28.882812 1.71875 -26.96875 C 1.71875 -24.957031 2.410156 -23.257812 3.796875 -21.875 C 5.179688 -20.488281 6.878906 -19.796875 8.890625 -19.796875 Z M 26.828125 -19.796875 C 28.742188 -19.796875 30.414062 -20.488281 31.84375 -21.875 C 33.28125 -23.257812 34 -24.957031 34 -26.96875 C 34 -28.882812 33.28125 -30.554688 31.84375 -31.984375 C 30.414062 -33.421875 28.742188 -34.140625 26.828125 -34.140625 C 24.816406 -34.140625 23.117188 -33.421875 21.734375 -31.984375 C 20.347656 -30.554688 19.65625 -28.882812 19.65625 -26.96875 C 19.65625 -24.957031 20.347656 -23.257812 21.734375 -21.875 C 23.117188 -20.488281 24.816406 -19.796875 26.828125 -19.796875 Z M 44.765625 -19.796875 C 46.671875 -19.796875 48.34375 -20.488281 49.78125 -21.875 C 51.21875 -23.257812 51.9375 -24.957031 51.9375 -26.96875 C 51.9375 -28.882812 51.21875 -30.554688 49.78125 -31.984375 C 48.34375 -33.421875 46.671875 -34.140625 44.765625 -34.140625 C 42.753906 -34.140625 41.054688 -33.421875 39.671875 -31.984375 C 38.285156 -30.554688 37.59375 -28.882812 37.59375 -26.96875 C 37.59375 -24.957031 38.285156 -23.257812 39.671875 -21.875 C 41.054688 -20.488281 42.753906 -19.796875 44.765625 -19.796875 Z M 62.703125 -19.796875 C 64.609375 -19.796875 66.28125 -20.488281 67.71875 -21.875 C 69.15625 -23.257812 69.875 -24.957031 69.875 -26.96875 C 69.875 -28.882812 69.15625 -30.554688 67.71875 -31.984375 C 66.28125 -33.421875 64.609375 -34.140625 62.703125 -34.140625 C 60.691406 -34.140625 58.988281 -33.421875 57.59375 -31.984375 C 56.207031 -30.554688 55.515625 -28.882812 55.515625 -26.96875 C 55.515625 -24.957031 56.207031 -23.257812 57.59375 -21.875 C 58.988281 -20.488281 60.691406 -19.796875 62.703125 -19.796875 Z M 80.625 -19.796875 C 82.539062 -19.796875 84.210938 -20.488281 85.640625 -21.875 C 87.078125 -23.257812 87.796875 -24.957031 87.796875 -26.96875 C 87.796875 -28.882812 87.078125 -30.554688 85.640625 -31.984375 C 84.210938 -33.421875 82.539062 -34.140625 80.625 -34.140625 C 78.613281 -34.140625 76.914062 -33.421875 75.53125 -31.984375 C 74.144531 -30.554688 73.453125 -28.882812 73.453125 -26.96875 C 73.453125 -24.957031 74.144531 -23.257812 75.53125 -21.875 C 76.914062 -20.488281 78.613281 -19.796875 80.625 -19.796875 Z M 98.5625 -19.796875 C 100.476562 -19.796875 102.148438 -20.488281 103.578125 -21.875 C 105.015625 -23.257812 105.734375 -24.957031 105.734375 -26.96875 C 105.734375 -28.882812 105.015625 -30.554688 103.578125 -31.984375 C 102.148438 -33.421875 100.476562 -34.140625 98.5625 -34.140625 C 96.550781 -34.140625 94.851562 -33.421875 93.46875 -31.984375 C 92.082031 -30.554688 91.390625 -28.882812 91.390625 -26.96875 C 91.390625 -24.957031 92.082031 -23.257812 93.46875 -21.875 C 94.851562 -20.488281 96.550781 -19.796875 98.5625 -19.796875 Z M 116.5 -19.796875 C 118.40625 -19.796875 120.078125 -20.488281 121.515625 -21.875 C 122.953125 -23.257812 123.671875 -24.957031 123.671875 -26.96875 C 123.671875 -28.882812 122.953125 -30.554688 121.515625 -31.984375 C 120.078125 -33.421875 118.40625 -34.140625 116.5 -34.140625 C 114.488281 -34.140625 112.789062 -33.421875 111.40625 -31.984375 C 110.019531 -30.554688 109.328125 -28.882812 109.328125 -26.96875 C 109.328125 -24.957031 110.019531 -23.257812 111.40625 -21.875 C 112.789062 -20.488281 114.488281 -19.796875 116.5 -19.796875 Z M 134.4375 -19.796875 C 136.34375 -19.796875 138.015625 -20.488281 139.453125 -21.875 C 140.890625 -23.257812 141.609375 -24.957031 141.609375 -26.96875 C 141.609375 -28.882812 140.890625 -30.554688 139.453125 -31.984375 C 138.015625 -33.421875 136.34375 -34.140625 134.4375 -34.140625 C 132.425781 -34.140625 130.722656 -33.421875 129.328125 -31.984375 C 127.941406 -30.554688 127.25 -28.882812 127.25 -26.96875 C 127.25 -24.957031 127.941406 -23.257812 129.328125 -21.875 C 130.722656 -20.488281 132.425781 -19.796875 134.4375 -19.796875 Z M 8.890625 -37.734375 C 10.804688 -37.734375 12.476562 -38.425781 13.90625 -39.8125 C 15.34375 -41.195312 16.0625 -42.894531 16.0625 -44.90625 C 16.0625 -46.820312 15.34375 -48.492188 13.90625 -49.921875 C 12.476562 -51.359375 10.804688 -52.078125 8.890625 -52.078125 C 6.878906 -52.078125 5.179688 -51.359375 3.796875 -49.921875 C 2.410156 -48.492188 1.71875 -46.820312 1.71875 -44.90625 C 1.71875 -42.894531 2.410156 -41.195312 3.796875 -39.8125 C 5.179688 -38.425781 6.878906 -37.734375 8.890625 -37.734375 Z M 26.828125 -37.734375 C 28.742188 -37.734375 30.414062 -38.425781 31.84375 -39.8125 C 33.28125 -41.195312 34 -42.894531 34 -44.90625 C 34 -46.820312 33.28125 -48.492188 31.84375 -49.921875 C 30.414062 -51.359375 28.742188 -52.078125 26.828125 -52.078125 C 24.816406 -52.078125 23.117188 -51.359375 21.734375 -49.921875 C 20.347656 -48.492188 19.65625 -46.820312 19.65625 -44.90625 C 19.65625 -42.894531 20.347656 -41.195312 21.734375 -39.8125 C 23.117188 -38.425781 24.816406 -37.734375 26.828125 -37.734375 Z M 44.765625 -37.734375 C 46.671875 -37.734375 48.34375 -38.425781 49.78125 -39.8125 C 51.21875 -41.195312 51.9375 -42.894531 51.9375 -44.90625 C 51.9375 -46.820312 51.21875 -48.492188 49.78125 -49.921875 C 48.34375 -51.359375 46.671875 -52.078125 44.765625 -52.078125 C 42.753906 -52.078125 41.054688 -51.359375 39.671875 -49.921875 C 38.285156 -48.492188 37.59375 -46.820312 37.59375 -44.90625 C 37.59375 -42.894531 38.285156 -41.195312 39.671875 -39.8125 C 41.054688 -38.425781 42.753906 -37.734375 44.765625 -37.734375 Z M 62.703125 -37.734375 C 64.609375 -37.734375 66.28125 -38.425781 67.71875 -39.8125 C 69.15625 -41.195312 69.875 -42.894531 69.875 -44.90625 C 69.875 -46.820312 69.15625 -48.492188 67.71875 -49.921875 C 66.28125 -51.359375 64.609375 -52.078125 62.703125 -52.078125 C 60.691406 -52.078125 58.988281 -51.359375 57.59375 -49.921875 C 56.207031 -48.492188 55.515625 -46.820312 55.515625 -44.90625 C 55.515625 -42.894531 56.207031 -41.195312 57.59375 -39.8125 C 58.988281 -38.425781 60.691406 -37.734375 62.703125 -37.734375 Z M 80.625 -37.734375 C 82.539062 -37.734375 84.210938 -38.425781 85.640625 -39.8125 C 87.078125 -41.195312 87.796875 -42.894531 87.796875 -44.90625 C 87.796875 -46.820312 87.078125 -48.492188 85.640625 -49.921875 C 84.210938 -51.359375 82.539062 -52.078125 80.625 -52.078125 C 78.613281 -52.078125 76.914062 -51.359375 75.53125 -49.921875 C 74.144531 -48.492188 73.453125 -46.820312 73.453125 -44.90625 C 73.453125 -42.894531 74.144531 -41.195312 75.53125 -39.8125 C 76.914062 -38.425781 78.613281 -37.734375 80.625 -37.734375 Z M 98.5625 -37.734375 C 100.476562 -37.734375 102.148438 -38.425781 103.578125 -39.8125 C 105.015625 -41.195312 105.734375 -42.894531 105.734375 -44.90625 C 105.734375 -46.820312 105.015625 -48.492188 103.578125 -49.921875 C 102.148438 -51.359375 100.476562 -52.078125 98.5625 -52.078125 C 96.550781 -52.078125 94.851562 -51.359375 93.46875 -49.921875 C 92.082031 -48.492188 91.390625 -46.820312 91.390625 -44.90625 C 91.390625 -42.894531 92.082031 -41.195312 93.46875 -39.8125 C 94.851562 -38.425781 96.550781 -37.734375 98.5625 -37.734375 Z M 116.5 -37.734375 C 118.40625 -37.734375 120.078125 -38.425781 121.515625 -39.8125 C 122.953125 -41.195312 123.671875 -42.894531 123.671875 -44.90625 C 123.671875 -46.820312 122.953125 -48.492188 121.515625 -49.921875 C 120.078125 -51.359375 118.40625 -52.078125 116.5 -52.078125 C 114.488281 -52.078125 112.789062 -51.359375 111.40625 -49.921875 C 110.019531 -48.492188 109.328125 -46.820312 109.328125 -44.90625 C 109.328125 -42.894531 110.019531 -41.195312 111.40625 -39.8125 C 112.789062 -38.425781 114.488281 -37.734375 116.5 -37.734375 Z M 134.4375 -37.734375 C 136.34375 -37.734375 138.015625 -38.425781 139.453125 -39.8125 C 140.890625 -41.195312 141.609375 -42.894531 141.609375 -44.90625 C 141.609375 -46.820312 140.890625 -48.492188 139.453125 -49.921875 C 138.015625 -51.359375 136.34375 -52.078125 134.4375 -52.078125 C 132.425781 -52.078125 130.722656 -51.359375 129.328125 -49.921875 C 127.941406 -48.492188 127.25 -46.820312 127.25 -44.90625 C 127.25 -42.894531 127.941406 -41.195312 129.328125 -39.8125 C 130.722656 -38.425781 132.425781 -37.734375 134.4375 -37.734375 Z M 8.890625 -55.671875 C 10.804688 -55.671875 12.476562 -56.363281 13.90625 -57.75 C 15.34375 -59.132812 16.0625 -60.832031 16.0625 -62.84375 C 16.0625 -64.75 15.34375 -66.421875 13.90625 -67.859375 C 12.476562 -69.296875 10.804688 -70.015625 8.890625 -70.015625 C 6.878906 -70.015625 5.179688 -69.296875 3.796875 -67.859375 C 2.410156 -66.421875 1.71875 -64.75 1.71875 -62.84375 C 1.71875 -60.832031 2.410156 -59.132812 3.796875 -57.75 C 5.179688 -56.363281 6.878906 -55.671875 8.890625 -55.671875 Z M 26.828125 -55.671875 C 28.742188 -55.671875 30.414062 -56.363281 31.84375 -57.75 C 33.28125 -59.132812 34 -60.832031 34 -62.84375 C 34 -64.75 33.28125 -66.421875 31.84375 -67.859375 C 30.414062 -69.296875 28.742188 -70.015625 26.828125 -70.015625 C 24.816406 -70.015625 23.117188 -69.296875 21.734375 -67.859375 C 20.347656 -66.421875 19.65625 -64.75 19.65625 -62.84375 C 19.65625 -60.832031 20.347656 -59.132812 21.734375 -57.75 C 23.117188 -56.363281 24.816406 -55.671875 26.828125 -55.671875 Z M 44.765625 -55.671875 C 46.671875 -55.671875 48.34375 -56.363281 49.78125 -57.75 C 51.21875 -59.132812 51.9375 -60.832031 51.9375 -62.84375 C 51.9375 -64.75 51.21875 -66.421875 49.78125 -67.859375 C 48.34375 -69.296875 46.671875 -70.015625 44.765625 -70.015625 C 42.753906 -70.015625 41.054688 -69.296875 39.671875 -67.859375 C 38.285156 -66.421875 37.59375 -64.75 37.59375 -62.84375 C 37.59375 -60.832031 38.285156 -59.132812 39.671875 -57.75 C 41.054688 -56.363281 42.753906 -55.671875 44.765625 -55.671875 Z M 98.5625 -55.671875 C 100.476562 -55.671875 102.148438 -56.363281 103.578125 -57.75 C 105.015625 -59.132812 105.734375 -60.832031 105.734375 -62.84375 C 105.734375 -64.75 105.015625 -66.421875 103.578125 -67.859375 C 102.148438 -69.296875 100.476562 -70.015625 98.5625 -70.015625 C 96.550781 -70.015625 94.851562 -69.296875 93.46875 -67.859375 C 92.082031 -66.421875 91.390625 -64.75 91.390625 -62.84375 C 91.390625 -60.832031 92.082031 -59.132812 93.46875 -57.75 C 94.851562 -56.363281 96.550781 -55.671875 98.5625 -55.671875 Z M 116.5 -55.671875 C 118.40625 -55.671875 120.078125 -56.363281 121.515625 -57.75 C 122.953125 -59.132812 123.671875 -60.832031 123.671875 -62.84375 C 123.671875 -64.75 122.953125 -66.421875 121.515625 -67.859375 C 120.078125 -69.296875 118.40625 -70.015625 116.5 -70.015625 C 114.488281 -70.015625 112.789062 -69.296875 111.40625 -67.859375 C 110.019531 -66.421875 109.328125 -64.75 109.328125 -62.84375 C 109.328125 -60.832031 110.019531 -59.132812 111.40625 -57.75 C 112.789062 -56.363281 114.488281 -55.671875 116.5 -55.671875 Z M 134.4375 -55.671875 C 136.34375 -55.671875 138.015625 -56.363281 139.453125 -57.75 C 140.890625 -59.132812 141.609375 -60.832031 141.609375 -62.84375 C 141.609375 -64.75 140.890625 -66.421875 139.453125 -67.859375 C 138.015625 -69.296875 136.34375 -70.015625 134.4375 -70.015625 C 132.425781 -70.015625 130.722656 -69.296875 129.328125 -67.859375 C 127.941406 -66.421875 127.25 -64.75 127.25 -62.84375 C 127.25 -60.832031 127.941406 -59.132812 129.328125 -57.75 C 130.722656 -56.363281 132.425781 -55.671875 134.4375 -55.671875 Z M 8.890625 -73.59375 C 10.804688 -73.59375 12.476562 -74.285156 13.90625 -75.671875 C 15.34375 -77.066406 16.0625 -78.765625 16.0625 -80.765625 C 16.0625 -82.679688 15.34375 -84.359375 13.90625 -85.796875 C 12.476562 -87.234375 10.804688 -87.953125 8.890625 -87.953125 C 6.878906 -87.953125 5.179688 -87.234375 3.796875 -85.796875 C 2.410156 -84.359375 1.71875 -82.679688 1.71875 -80.765625 C 1.71875 -78.765625 2.410156 -77.066406 3.796875 -75.671875 C 5.179688 -74.285156 6.878906 -73.59375 8.890625 -73.59375 Z M 26.828125 -73.59375 C 28.742188 -73.59375 30.414062 -74.285156 31.84375 -75.671875 C 33.28125 -77.066406 34 -78.765625 34 -80.765625 C 34 -82.679688 33.28125 -84.359375 31.84375 -85.796875 C 30.414062 -87.234375 28.742188 -87.953125 26.828125 -87.953125 C 24.816406 -87.953125 23.117188 -87.234375 21.734375 -85.796875 C 20.347656 -84.359375 19.65625 -82.679688 19.65625 -80.765625 C 19.65625 -78.765625 20.347656 -77.066406 21.734375 -75.671875 C 23.117188 -74.285156 24.816406 -73.59375 26.828125 -73.59375 Z M 44.765625 -73.59375 C 46.671875 -73.59375 48.34375 -74.285156 49.78125 -75.671875 C 51.21875 -77.066406 51.9375 -78.765625 51.9375 -80.765625 C 51.9375 -82.679688 51.21875 -84.359375 49.78125 -85.796875 C 48.34375 -87.234375 46.671875 -87.953125 44.765625 -87.953125 C 42.753906 -87.953125 41.054688 -87.234375 39.671875 -85.796875 C 38.285156 -84.359375 37.59375 -82.679688 37.59375 -80.765625 C 37.59375 -78.765625 38.285156 -77.066406 39.671875 -75.671875 C 41.054688 -74.285156 42.753906 -73.59375 44.765625 -73.59375 Z M 98.5625 -73.59375 C 100.476562 -73.59375 102.148438 -74.285156 103.578125 -75.671875 C 105.015625 -77.066406 105.734375 -78.765625 105.734375 -80.765625 C 105.734375 -82.679688 105.015625 -84.359375 103.578125 -85.796875 C 102.148438 -87.234375 100.476562 -87.953125 98.5625 -87.953125 C 96.550781 -87.953125 94.851562 -87.234375 93.46875 -85.796875 C 92.082031 -84.359375 91.390625 -82.679688 91.390625 -80.765625 C 91.390625 -78.765625 92.082031 -77.066406 93.46875 -75.671875 C 94.851562 -74.285156 96.550781 -73.59375 98.5625 -73.59375 Z M 116.5 -73.59375 C 118.40625 -73.59375 120.078125 -74.285156 121.515625 -75.671875 C 122.953125 -77.066406 123.671875 -78.765625 123.671875 -80.765625 C 123.671875 -82.679688 122.953125 -84.359375 121.515625 -85.796875 C 120.078125 -87.234375 118.40625 -87.953125 116.5 -87.953125 C 114.488281 -87.953125 112.789062 -87.234375 111.40625 -85.796875 C 110.019531 -84.359375 109.328125 -82.679688 109.328125 -80.765625 C 109.328125 -78.765625 110.019531 -77.066406 111.40625 -75.671875 C 112.789062 -74.285156 114.488281 -73.59375 116.5 -73.59375 Z M 134.4375 -73.59375 C 136.34375 -73.59375 138.015625 -74.285156 139.453125 -75.671875 C 140.890625 -77.066406 141.609375 -78.765625 141.609375 -80.765625 C 141.609375 -82.679688 140.890625 -84.359375 139.453125 -85.796875 C 138.015625 -87.234375 136.34375 -87.953125 134.4375 -87.953125 C 132.425781 -87.953125 130.722656 -87.234375 129.328125 -85.796875 C 127.941406 -84.359375 127.25 -82.679688 127.25 -80.765625 C 127.25 -78.765625 127.941406 -77.066406 129.328125 -75.671875 C 130.722656 -74.285156 132.425781 -73.59375 134.4375 -73.59375 Z M 8.890625 -91.53125 C 10.804688 -91.53125 12.476562 -92.222656 13.90625 -93.609375 C 15.34375 -94.992188 16.0625 -96.691406 16.0625 -98.703125 C 16.0625 -100.617188 15.34375 -102.289062 13.90625 -103.71875 C 12.476562 -105.15625 10.804688 -105.875 8.890625 -105.875 C 6.878906 -105.875 5.179688 -105.15625 3.796875 -103.71875 C 2.410156 -102.289062 1.71875 -100.617188 1.71875 -98.703125 C 1.71875 -96.691406 2.410156 -94.992188 3.796875 -93.609375 C 5.179688 -92.222656 6.878906 -91.53125 8.890625 -91.53125 Z M 26.828125 -91.53125 C 28.742188 -91.53125 30.414062 -92.222656 31.84375 -93.609375 C 33.28125 -94.992188 34 -96.691406 34 -98.703125 C 34 -100.617188 33.28125 -102.289062 31.84375 -103.71875 C 30.414062 -105.15625 28.742188 -105.875 26.828125 -105.875 C 24.816406 -105.875 23.117188 -105.15625 21.734375 -103.71875 C 20.347656 -102.289062 19.65625 -100.617188 19.65625 -98.703125 C 19.65625 -96.691406 20.347656 -94.992188 21.734375 -93.609375 C 23.117188 -92.222656 24.816406 -91.53125 26.828125 -91.53125 Z M 44.765625 -91.53125 C 46.671875 -91.53125 48.34375 -92.222656 49.78125 -93.609375 C 51.21875 -94.992188 51.9375 -96.691406 51.9375 -98.703125 C 51.9375 -100.617188 51.21875 -102.289062 49.78125 -103.71875 C 48.34375 -105.15625 46.671875 -105.875 44.765625 -105.875 C 42.753906 -105.875 41.054688 -105.15625 39.671875 -103.71875 C 38.285156 -102.289062 37.59375 -100.617188 37.59375 -98.703125 C 37.59375 -96.691406 38.285156 -94.992188 39.671875 -93.609375 C 41.054688 -92.222656 42.753906 -91.53125 44.765625 -91.53125 Z M 80.625 -91.53125 C 82.539062 -91.53125 84.210938 -92.222656 85.640625 -93.609375 C 87.078125 -94.992188 87.796875 -96.691406 87.796875 -98.703125 C 87.796875 -100.617188 87.078125 -102.289062 85.640625 -103.71875 C 84.210938 -105.15625 82.539062 -105.875 80.625 -105.875 C 78.613281 -105.875 76.914062 -105.15625 75.53125 -103.71875 C 74.144531 -102.289062 73.453125 -100.617188 73.453125 -98.703125 C 73.453125 -96.691406 74.144531 -94.992188 75.53125 -93.609375 C 76.914062 -92.222656 78.613281 -91.53125 80.625 -91.53125 Z M 98.5625 -91.53125 C 100.476562 -91.53125 102.148438 -92.222656 103.578125 -93.609375 C 105.015625 -94.992188 105.734375 -96.691406 105.734375 -98.703125 C 105.734375 -100.617188 105.015625 -102.289062 103.578125 -103.71875 C 102.148438 -105.15625 100.476562 -105.875 98.5625 -105.875 C 96.550781 -105.875 94.851562 -105.15625 93.46875 -103.71875 C 92.082031 -102.289062 91.390625 -100.617188 91.390625 -98.703125 C 91.390625 -96.691406 92.082031 -94.992188 93.46875 -93.609375 C 94.851562 -92.222656 96.550781 -91.53125 98.5625 -91.53125 Z M 116.5 -91.53125 C 118.40625 -91.53125 120.078125 -92.222656 121.515625 -93.609375 C 122.953125 -94.992188 123.671875 -96.691406 123.671875 -98.703125 C 123.671875 -100.617188 122.953125 -102.289062 121.515625 -103.71875 C 120.078125 -105.15625 118.40625 -105.875 116.5 -105.875 C 114.488281 -105.875 112.789062 -105.15625 111.40625 -103.71875 C 110.019531 -102.289062 109.328125 -100.617188 109.328125 -98.703125 C 109.328125 -96.691406 110.019531 -94.992188 111.40625 -93.609375 C 112.789062 -92.222656 114.488281 -91.53125 116.5 -91.53125 Z M 134.4375 -91.53125 C 136.34375 -91.53125 138.015625 -92.222656 139.453125 -93.609375 C 140.890625 -94.992188 141.609375 -96.691406 141.609375 -98.703125 C 141.609375 -100.617188 140.890625 -102.289062 139.453125 -103.71875 C 138.015625 -105.15625 136.34375 -105.875 134.4375 -105.875 C 132.425781 -105.875 130.722656 -105.15625 129.328125 -103.71875 C 127.941406 -102.289062 127.25 -100.617188 127.25 -98.703125 C 127.25 -96.691406 127.941406 -94.992188 129.328125 -93.609375 C 130.722656 -92.222656 132.425781 -91.53125 134.4375 -91.53125 Z M 8.890625 -109.46875 C 10.804688 -109.46875 12.476562 -110.160156 13.90625 -111.546875 C 15.34375 -112.929688 16.0625 -114.628906 16.0625 -116.640625 C 16.0625 -118.554688 15.34375 -120.226562 13.90625 -121.65625 C 12.476562 -123.09375 10.804688 -123.8125 8.890625 -123.8125 C 6.878906 -123.8125 5.179688 -123.09375 3.796875 -121.65625 C 2.410156 -120.226562 1.71875 -118.554688 1.71875 -116.640625 C 1.71875 -114.628906 2.410156 -112.929688 3.796875 -111.546875 C 5.179688 -110.160156 6.878906 -109.46875 8.890625 -109.46875 Z M 26.828125 -109.46875 C 28.742188 -109.46875 30.414062 -110.160156 31.84375 -111.546875 C 33.28125 -112.929688 34 -114.628906 34 -116.640625 C 34 -118.554688 33.28125 -120.226562 31.84375 -121.65625 C 30.414062 -123.09375 28.742188 -123.8125 26.828125 -123.8125 C 24.816406 -123.8125 23.117188 -123.09375 21.734375 -121.65625 C 20.347656 -120.226562 19.65625 -118.554688 19.65625 -116.640625 C 19.65625 -114.628906 20.347656 -112.929688 21.734375 -111.546875 C 23.117188 -110.160156 24.816406 -109.46875 26.828125 -109.46875 Z M 44.765625 -109.46875 C 46.671875 -109.46875 48.34375 -110.160156 49.78125 -111.546875 C 51.21875 -112.929688 51.9375 -114.628906 51.9375 -116.640625 C 51.9375 -118.554688 51.21875 -120.226562 49.78125 -121.65625 C 48.34375 -123.09375 46.671875 -123.8125 44.765625 -123.8125 C 42.753906 -123.8125 41.054688 -123.09375 39.671875 -121.65625 C 38.285156 -120.226562 37.59375 -118.554688 37.59375 -116.640625 C 37.59375 -114.628906 38.285156 -112.929688 39.671875 -111.546875 C 41.054688 -110.160156 42.753906 -109.46875 44.765625 -109.46875 Z M 80.625 -109.46875 C 82.539062 -109.46875 84.210938 -110.160156 85.640625 -111.546875 C 87.078125 -112.929688 87.796875 -114.628906 87.796875 -116.640625 C 87.796875 -118.554688 87.078125 -120.226562 85.640625 -121.65625 C 84.210938 -123.09375 82.539062 -123.8125 80.625 -123.8125 C 78.613281 -123.8125 76.914062 -123.09375 75.53125 -121.65625 C 74.144531 -120.226562 73.453125 -118.554688 73.453125 -116.640625 C 73.453125 -114.628906 74.144531 -112.929688 75.53125 -111.546875 C 76.914062 -110.160156 78.613281 -109.46875 80.625 -109.46875 Z M 98.5625 -109.46875 C 100.476562 -109.46875 102.148438 -110.160156 103.578125 -111.546875 C 105.015625 -112.929688 105.734375 -114.628906 105.734375 -116.640625 C 105.734375 -118.554688 105.015625 -120.226562 103.578125 -121.65625 C 102.148438 -123.09375 100.476562 -123.8125 98.5625 -123.8125 C 96.550781 -123.8125 94.851562 -123.09375 93.46875 -121.65625 C 92.082031 -120.226562 91.390625 -118.554688 91.390625 -116.640625 C 91.390625 -114.628906 92.082031 -112.929688 93.46875 -111.546875 C 94.851562 -110.160156 96.550781 -109.46875 98.5625 -109.46875 Z M 116.5 -109.46875 C 118.40625 -109.46875 120.078125 -110.160156 121.515625 -111.546875 C 122.953125 -112.929688 123.671875 -114.628906 123.671875 -116.640625 C 123.671875 -118.554688 122.953125 -120.226562 121.515625 -121.65625 C 120.078125 -123.09375 118.40625 -123.8125 116.5 -123.8125 C 114.488281 -123.8125 112.789062 -123.09375 111.40625 -121.65625 C 110.019531 -120.226562 109.328125 -118.554688 109.328125 -116.640625 C 109.328125 -114.628906 110.019531 -112.929688 111.40625 -111.546875 C 112.789062 -110.160156 114.488281 -109.46875 116.5 -109.46875 Z M 134.4375 -109.46875 C 136.34375 -109.46875 138.015625 -110.160156 139.453125 -111.546875 C 140.890625 -112.929688 141.609375 -114.628906 141.609375 -116.640625 C 141.609375 -118.554688 140.890625 -120.226562 139.453125 -121.65625 C 138.015625 -123.09375 136.34375 -123.8125 134.4375 -123.8125 C 132.425781 -123.8125 130.722656 -123.09375 129.328125 -121.65625 C 127.941406 -120.226562 127.25 -118.554688 127.25 -116.640625 C 127.25 -114.628906 127.941406 -112.929688 129.328125 -111.546875 C 130.722656 -110.160156 132.425781 -109.46875 134.4375 -109.46875 Z M 8.890625 -127.40625 C 10.804688 -127.40625 12.476562 -128.097656 13.90625 -129.484375 C 15.34375 -130.867188 16.0625 -132.566406 16.0625 -134.578125 C 16.0625 -136.484375 15.34375 -138.15625 13.90625 -139.59375 C 12.476562 -141.03125 10.804688 -141.75 8.890625 -141.75 C 6.878906 -141.75 5.179688 -141.03125 3.796875 -139.59375 C 2.410156 -138.15625 1.71875 -136.484375 1.71875 -134.578125 C 1.71875 -132.566406 2.410156 -130.867188 3.796875 -129.484375 C 5.179688 -128.097656 6.878906 -127.40625 8.890625 -127.40625 Z M 26.828125 -127.40625 C 28.742188 -127.40625 30.414062 -128.097656 31.84375 -129.484375 C 33.28125 -130.867188 34 -132.566406 34 -134.578125 C 34 -136.484375 33.28125 -138.15625 31.84375 -139.59375 C 30.414062 -141.03125 28.742188 -141.75 26.828125 -141.75 C 24.816406 -141.75 23.117188 -141.03125 21.734375 -139.59375 C 20.347656 -138.15625 19.65625 -136.484375 19.65625 -134.578125 C 19.65625 -132.566406 20.347656 -130.867188 21.734375 -129.484375 C 23.117188 -128.097656 24.816406 -127.40625 26.828125 -127.40625 Z M 44.765625 -127.40625 C 46.671875 -127.40625 48.34375 -128.097656 49.78125 -129.484375 C 51.21875 -130.867188 51.9375 -132.566406 51.9375 -134.578125 C 51.9375 -136.484375 51.21875 -138.15625 49.78125 -139.59375 C 48.34375 -141.03125 46.671875 -141.75 44.765625 -141.75 C 42.753906 -141.75 41.054688 -141.03125 39.671875 -139.59375 C 38.285156 -138.15625 37.59375 -136.484375 37.59375 -134.578125 C 37.59375 -132.566406 38.285156 -130.867188 39.671875 -129.484375 C 41.054688 -128.097656 42.753906 -127.40625 44.765625 -127.40625 Z M 8.890625 -145.328125 C 10.804688 -145.328125 12.476562 -146.019531 13.90625 -147.40625 C 15.34375 -148.800781 16.0625 -150.5 16.0625 -152.5 C 16.0625 -154.414062 15.34375 -156.09375 13.90625 -157.53125 C 12.476562 -158.96875 10.804688 -159.6875 8.890625 -159.6875 C 6.878906 -159.6875 5.179688 -158.96875 3.796875 -157.53125 C 2.410156 -156.09375 1.71875 -154.414062 1.71875 -152.5 C 1.71875 -150.5 2.410156 -148.800781 3.796875 -147.40625 C 5.179688 -146.019531 6.878906 -145.328125 8.890625 -145.328125 Z M 26.828125 -145.328125 C 28.742188 -145.328125 30.414062 -146.019531 31.84375 -147.40625 C 33.28125 -148.800781 34 -150.5 34 -152.5 C 34 -154.414062 33.28125 -156.09375 31.84375 -157.53125 C 30.414062 -158.96875 28.742188 -159.6875 26.828125 -159.6875 C 24.816406 -159.6875 23.117188 -158.96875 21.734375 -157.53125 C 20.347656 -156.09375 19.65625 -154.414062 19.65625 -152.5 C 19.65625 -150.5 20.347656 -148.800781 21.734375 -147.40625 C 23.117188 -146.019531 24.816406 -145.328125 26.828125 -145.328125 Z M 44.765625 -145.328125 C 46.671875 -145.328125 48.34375 -146.019531 49.78125 -147.40625 C 51.21875 -148.800781 51.9375 -150.5 51.9375 -152.5 C 51.9375 -154.414062 51.21875 -156.09375 49.78125 -157.53125 C 48.34375 -158.96875 46.671875 -159.6875 44.765625 -159.6875 C 42.753906 -159.6875 41.054688 -158.96875 39.671875 -157.53125 C 38.285156 -156.09375 37.59375 -154.414062 37.59375 -152.5 C 37.59375 -150.5 38.285156 -148.800781 39.671875 -147.40625 C 41.054688 -146.019531 42.753906 -145.328125 44.765625 -145.328125 Z M 8.890625 -163.265625 C 10.804688 -163.265625 12.476562 -163.957031 13.90625 -165.34375 C 15.34375 -166.726562 16.0625 -168.425781 16.0625 -170.4375 C 16.0625 -172.351562 15.34375 -174.023438 13.90625 -175.453125 C 12.476562 -176.890625 10.804688 -177.609375 8.890625 -177.609375 C 6.878906 -177.609375 5.179688 -176.890625 3.796875 -175.453125 C 2.410156 -174.023438 1.71875 -172.351562 1.71875 -170.4375 C 1.71875 -168.425781 2.410156 -166.726562 3.796875 -165.34375 C 5.179688 -163.957031 6.878906 -163.265625 8.890625 -163.265625 Z M 26.828125 -163.265625 C 28.742188 -163.265625 30.414062 -163.957031 31.84375 -165.34375 C 33.28125 -166.726562 34 -168.425781 34 -170.4375 C 34 -172.351562 33.28125 -174.023438 31.84375 -175.453125 C 30.414062 -176.890625 28.742188 -177.609375 26.828125 -177.609375 C 24.816406 -177.609375 23.117188 -176.890625 21.734375 -175.453125 C 20.347656 -174.023438 19.65625 -172.351562 19.65625 -170.4375 C 19.65625 -168.425781 20.347656 -166.726562 21.734375 -165.34375 C 23.117188 -163.957031 24.816406 -163.265625 26.828125 -163.265625 Z M 44.765625 -163.265625 C 46.671875 -163.265625 48.34375 -163.957031 49.78125 -165.34375 C 51.21875 -166.726562 51.9375 -168.425781 51.9375 -170.4375 C 51.9375 -172.351562 51.21875 -174.023438 49.78125 -175.453125 C 48.34375 -176.890625 46.671875 -177.609375 44.765625 -177.609375 C 42.753906 -177.609375 41.054688 -176.890625 39.671875 -175.453125 C 38.285156 -174.023438 37.59375 -172.351562 37.59375 -170.4375 C 37.59375 -168.425781 38.285156 -166.726562 39.671875 -165.34375 C 41.054688 -163.957031 42.753906 -163.265625 44.765625 -163.265625 Z M 8.890625 -181.203125 C 10.804688 -181.203125 12.476562 -181.894531 13.90625 -183.28125 C 15.34375 -184.664062 16.0625 -186.363281 16.0625 -188.375 C 16.0625 -190.289062 15.34375 -191.960938 13.90625 -193.390625 C 12.476562 -194.828125 10.804688 -195.546875 8.890625 -195.546875 C 6.878906 -195.546875 5.179688 -194.828125 3.796875 -193.390625 C 2.410156 -191.960938 1.71875 -190.289062 1.71875 -188.375 C 1.71875 -186.363281 2.410156 -184.664062 3.796875 -183.28125 C 5.179688 -181.894531 6.878906 -181.203125 8.890625 -181.203125 Z M 26.828125 -181.203125 C 28.742188 -181.203125 30.414062 -181.894531 31.84375 -183.28125 C 33.28125 -184.664062 34 -186.363281 34 -188.375 C 34 -190.289062 33.28125 -191.960938 31.84375 -193.390625 C 30.414062 -194.828125 28.742188 -195.546875 26.828125 -195.546875 C 24.816406 -195.546875 23.117188 -194.828125 21.734375 -193.390625 C 20.347656 -191.960938 19.65625 -190.289062 19.65625 -188.375 C 19.65625 -186.363281 20.347656 -184.664062 21.734375 -183.28125 C 23.117188 -181.894531 24.816406 -181.203125 26.828125 -181.203125 Z M 44.765625 -181.203125 C 46.671875 -181.203125 48.34375 -181.894531 49.78125 -183.28125 C 51.21875 -184.664062 51.9375 -186.363281 51.9375 -188.375 C 51.9375 -190.289062 51.21875 -191.960938 49.78125 -193.390625 C 48.34375 -194.828125 46.671875 -195.546875 44.765625 -195.546875 C 42.753906 -195.546875 41.054688 -194.828125 39.671875 -193.390625 C 38.285156 -191.960938 37.59375 -190.289062 37.59375 -188.375 C 37.59375 -186.363281 38.285156 -184.664062 39.671875 -183.28125 C 41.054688 -181.894531 42.753906 -181.203125 44.765625 -181.203125 Z M 8.890625 -199.140625 C 10.804688 -199.140625 12.476562 -199.832031 13.90625 -201.21875 C 15.34375 -202.601562 16.0625 -204.300781 16.0625 -206.3125 C 16.0625 -208.21875 15.34375 -209.890625 13.90625 -211.328125 C 12.476562 -212.765625 10.804688 -213.484375 8.890625 -213.484375 C 6.878906 -213.484375 5.179688 -212.765625 3.796875 -211.328125 C 2.410156 -209.890625 1.71875 -208.21875 1.71875 -206.3125 C 1.71875 -204.300781 2.410156 -202.601562 3.796875 -201.21875 C 5.179688 -199.832031 6.878906 -199.140625 8.890625 -199.140625 Z M 26.828125 -199.140625 C 28.742188 -199.140625 30.414062 -199.832031 31.84375 -201.21875 C 33.28125 -202.601562 34 -204.300781 34 -206.3125 C 34 -208.21875 33.28125 -209.890625 31.84375 -211.328125 C 30.414062 -212.765625 28.742188 -213.484375 26.828125 -213.484375 C 24.816406 -213.484375 23.117188 -212.765625 21.734375 -211.328125 C 20.347656 -209.890625 19.65625 -208.21875 19.65625 -206.3125 C 19.65625 -204.300781 20.347656 -202.601562 21.734375 -201.21875 C 23.117188 -199.832031 24.816406 -199.140625 26.828125 -199.140625 Z M 44.765625 -199.140625 C 46.671875 -199.140625 48.34375 -199.832031 49.78125 -201.21875 C 51.21875 -202.601562 51.9375 -204.300781 51.9375 -206.3125 C 51.9375 -208.21875 51.21875 -209.890625 49.78125 -211.328125 C 48.34375 -212.765625 46.671875 -213.484375 44.765625 -213.484375 C 42.753906 -213.484375 41.054688 -212.765625 39.671875 -211.328125 C 38.285156 -209.890625 37.59375 -208.21875 37.59375 -206.3125 C 37.59375 -204.300781 38.285156 -202.601562 39.671875 -201.21875 C 41.054688 -199.832031 42.753906 -199.140625 44.765625 -199.140625 Z M 8.890625 -217.0625 C 10.804688 -217.0625 12.476562 -217.753906 13.90625 -219.140625 C 15.34375 -220.535156 16.0625 -222.234375 16.0625 -224.234375 C 16.0625 -226.148438 15.34375 -227.828125 13.90625 -229.265625 C 12.476562 -230.703125 10.804688 -231.421875 8.890625 -231.421875 C 6.878906 -231.421875 5.179688 -230.703125 3.796875 -229.265625 C 2.410156 -227.828125 1.71875 -226.148438 1.71875 -224.234375 C 1.71875 -222.234375 2.410156 -220.535156 3.796875 -219.140625 C 5.179688 -217.753906 6.878906 -217.0625 8.890625 -217.0625 Z M 26.828125 -217.0625 C 28.742188 -217.0625 30.414062 -217.753906 31.84375 -219.140625 C 33.28125 -220.535156 34 -222.234375 34 -224.234375 C 34 -226.148438 33.28125 -227.828125 31.84375 -229.265625 C 30.414062 -230.703125 28.742188 -231.421875 26.828125 -231.421875 C 24.816406 -231.421875 23.117188 -230.703125 21.734375 -229.265625 C 20.347656 -227.828125 19.65625 -226.148438 19.65625 -224.234375 C 19.65625 -222.234375 20.347656 -220.535156 21.734375 -219.140625 C 23.117188 -217.753906 24.816406 -217.0625 26.828125 -217.0625 Z M 44.765625 -217.0625 C 46.671875 -217.0625 48.34375 -217.753906 49.78125 -219.140625 C 51.21875 -220.535156 51.9375 -222.234375 51.9375 -224.234375 C 51.9375 -226.148438 51.21875 -227.828125 49.78125 -229.265625 C 48.34375 -230.703125 46.671875 -231.421875 44.765625 -231.421875 C 42.753906 -231.421875 41.054688 -230.703125 39.671875 -229.265625 C 38.285156 -227.828125 37.59375 -226.148438 37.59375 -224.234375 C 37.59375 -222.234375 38.285156 -220.535156 39.671875 -219.140625 C 41.054688 -217.753906 42.753906 -217.0625 44.765625 -217.0625 Z M 98.5625 -217.0625 C 100.476562 -217.0625 102.148438 -217.753906 103.578125 -219.140625 C 105.015625 -220.535156 105.734375 -222.234375 105.734375 -224.234375 C 105.734375 -226.148438 105.015625 -227.828125 103.578125 -229.265625 C 102.148438 -230.703125 100.476562 -231.421875 98.5625 -231.421875 C 96.550781 -231.421875 94.851562 -230.703125 93.46875 -229.265625 C 92.082031 -227.828125 91.390625 -226.148438 91.390625 -224.234375 C 91.390625 -222.234375 92.082031 -220.535156 93.46875 -219.140625 C 94.851562 -217.753906 96.550781 -217.0625 98.5625 -217.0625 Z M 116.5 -217.0625 C 118.40625 -217.0625 120.078125 -217.753906 121.515625 -219.140625 C 122.953125 -220.535156 123.671875 -222.234375 123.671875 -224.234375 C 123.671875 -226.148438 122.953125 -227.828125 121.515625 -229.265625 C 120.078125 -230.703125 118.40625 -231.421875 116.5 -231.421875 C 114.488281 -231.421875 112.789062 -230.703125 111.40625 -229.265625 C 110.019531 -227.828125 109.328125 -226.148438 109.328125 -224.234375 C 109.328125 -222.234375 110.019531 -220.535156 111.40625 -219.140625 C 112.789062 -217.753906 114.488281 -217.0625 116.5 -217.0625 Z M 134.4375 -217.0625 C 136.34375 -217.0625 138.015625 -217.753906 139.453125 -219.140625 C 140.890625 -220.535156 141.609375 -222.234375 141.609375 -224.234375 C 141.609375 -226.148438 140.890625 -227.828125 139.453125 -229.265625 C 138.015625 -230.703125 136.34375 -231.421875 134.4375 -231.421875 C 132.425781 -231.421875 130.722656 -230.703125 129.328125 -229.265625 C 127.941406 -227.828125 127.25 -226.148438 127.25 -224.234375 C 127.25 -222.234375 127.941406 -220.535156 129.328125 -219.140625 C 130.722656 -217.753906 132.425781 -217.0625 134.4375 -217.0625 Z M 8.890625 -235 C 10.804688 -235 12.476562 -235.691406 13.90625 -237.078125 C 15.34375 -238.460938 16.0625 -240.160156 16.0625 -242.171875 C 16.0625 -244.085938 15.34375 -245.757812 13.90625 -247.1875 C 12.476562 -248.625 10.804688 -249.34375 8.890625 -249.34375 C 6.878906 -249.34375 5.179688 -248.625 3.796875 -247.1875 C 2.410156 -245.757812 1.71875 -244.085938 1.71875 -242.171875 C 1.71875 -240.160156 2.410156 -238.460938 3.796875 -237.078125 C 5.179688 -235.691406 6.878906 -235 8.890625 -235 Z M 26.828125 -235 C 28.742188 -235 30.414062 -235.691406 31.84375 -237.078125 C 33.28125 -238.460938 34 -240.160156 34 -242.171875 C 34 -244.085938 33.28125 -245.757812 31.84375 -247.1875 C 30.414062 -248.625 28.742188 -249.34375 26.828125 -249.34375 C 24.816406 -249.34375 23.117188 -248.625 21.734375 -247.1875 C 20.347656 -245.757812 19.65625 -244.085938 19.65625 -242.171875 C 19.65625 -240.160156 20.347656 -238.460938 21.734375 -237.078125 C 23.117188 -235.691406 24.816406 -235 26.828125 -235 Z M 44.765625 -235 C 46.671875 -235 48.34375 -235.691406 49.78125 -237.078125 C 51.21875 -238.460938 51.9375 -240.160156 51.9375 -242.171875 C 51.9375 -244.085938 51.21875 -245.757812 49.78125 -247.1875 C 48.34375 -248.625 46.671875 -249.34375 44.765625 -249.34375 C 42.753906 -249.34375 41.054688 -248.625 39.671875 -247.1875 C 38.285156 -245.757812 37.59375 -244.085938 37.59375 -242.171875 C 37.59375 -240.160156 38.285156 -238.460938 39.671875 -237.078125 C 41.054688 -235.691406 42.753906 -235 44.765625 -235 Z M 62.703125 -235 C 64.609375 -235 66.28125 -235.691406 67.71875 -237.078125 C 69.15625 -238.460938 69.875 -240.160156 69.875 -242.171875 C 69.875 -244.085938 69.15625 -245.757812 67.71875 -247.1875 C 66.28125 -248.625 64.609375 -249.34375 62.703125 -249.34375 C 60.691406 -249.34375 58.988281 -248.625 57.59375 -247.1875 C 56.207031 -245.757812 55.515625 -244.085938 55.515625 -242.171875 C 55.515625 -240.160156 56.207031 -238.460938 57.59375 -237.078125 C 58.988281 -235.691406 60.691406 -235 62.703125 -235 Z M 80.625 -235 C 82.539062 -235 84.210938 -235.691406 85.640625 -237.078125 C 87.078125 -238.460938 87.796875 -240.160156 87.796875 -242.171875 C 87.796875 -244.085938 87.078125 -245.757812 85.640625 -247.1875 C 84.210938 -248.625 82.539062 -249.34375 80.625 -249.34375 C 78.613281 -249.34375 76.914062 -248.625 75.53125 -247.1875 C 74.144531 -245.757812 73.453125 -244.085938 73.453125 -242.171875 C 73.453125 -240.160156 74.144531 -238.460938 75.53125 -237.078125 C 76.914062 -235.691406 78.613281 -235 80.625 -235 Z M 98.5625 -235 C 100.476562 -235 102.148438 -235.691406 103.578125 -237.078125 C 105.015625 -238.460938 105.734375 -240.160156 105.734375 -242.171875 C 105.734375 -244.085938 105.015625 -245.757812 103.578125 -247.1875 C 102.148438 -248.625 100.476562 -249.34375 98.5625 -249.34375 C 96.550781 -249.34375 94.851562 -248.625 93.46875 -247.1875 C 92.082031 -245.757812 91.390625 -244.085938 91.390625 -242.171875 C 91.390625 -240.160156 92.082031 -238.460938 93.46875 -237.078125 C 94.851562 -235.691406 96.550781 -235 98.5625 -235 Z M 116.5 -235 C 118.40625 -235 120.078125 -235.691406 121.515625 -237.078125 C 122.953125 -238.460938 123.671875 -240.160156 123.671875 -242.171875 C 123.671875 -244.085938 122.953125 -245.757812 121.515625 -247.1875 C 120.078125 -248.625 118.40625 -249.34375 116.5 -249.34375 C 114.488281 -249.34375 112.789062 -248.625 111.40625 -247.1875 C 110.019531 -245.757812 109.328125 -244.085938 109.328125 -242.171875 C 109.328125 -240.160156 110.019531 -238.460938 111.40625 -237.078125 C 112.789062 -235.691406 114.488281 -235 116.5 -235 Z M 134.4375 -235 C 136.34375 -235 138.015625 -235.691406 139.453125 -237.078125 C 140.890625 -238.460938 141.609375 -240.160156 141.609375 -242.171875 C 141.609375 -244.085938 140.890625 -245.757812 139.453125 -247.1875 C 138.015625 -248.625 136.34375 -249.34375 134.4375 -249.34375 C 132.425781 -249.34375 130.722656 -248.625 129.328125 -247.1875 C 127.941406 -245.757812 127.25 -244.085938 127.25 -242.171875 C 127.25 -240.160156 127.941406 -238.460938 129.328125 -237.078125 C 130.722656 -235.691406 132.425781 -235 134.4375 -235 Z M 8.890625 -252.9375 C 10.804688 -252.9375 12.476562 -253.628906 13.90625 -255.015625 C 15.34375 -256.398438 16.0625 -258.097656 16.0625 -260.109375 C 16.0625 -262.023438 15.34375 -263.695312 13.90625 -265.125 C 12.476562 -266.5625 10.804688 -267.28125 8.890625 -267.28125 C 6.878906 -267.28125 5.179688 -266.5625 3.796875 -265.125 C 2.410156 -263.695312 1.71875 -262.023438 1.71875 -260.109375 C 1.71875 -258.097656 2.410156 -256.398438 3.796875 -255.015625 C 5.179688 -253.628906 6.878906 -252.9375 8.890625 -252.9375 Z M 26.828125 -252.9375 C 28.742188 -252.9375 30.414062 -253.628906 31.84375 -255.015625 C 33.28125 -256.398438 34 -258.097656 34 -260.109375 C 34 -262.023438 33.28125 -263.695312 31.84375 -265.125 C 30.414062 -266.5625 28.742188 -267.28125 26.828125 -267.28125 C 24.816406 -267.28125 23.117188 -266.5625 21.734375 -265.125 C 20.347656 -263.695312 19.65625 -262.023438 19.65625 -260.109375 C 19.65625 -258.097656 20.347656 -256.398438 21.734375 -255.015625 C 23.117188 -253.628906 24.816406 -252.9375 26.828125 -252.9375 Z M 44.765625 -252.9375 C 46.671875 -252.9375 48.34375 -253.628906 49.78125 -255.015625 C 51.21875 -256.398438 51.9375 -258.097656 51.9375 -260.109375 C 51.9375 -262.023438 51.21875 -263.695312 49.78125 -265.125 C 48.34375 -266.5625 46.671875 -267.28125 44.765625 -267.28125 C 42.753906 -267.28125 41.054688 -266.5625 39.671875 -265.125 C 38.285156 -263.695312 37.59375 -262.023438 37.59375 -260.109375 C 37.59375 -258.097656 38.285156 -256.398438 39.671875 -255.015625 C 41.054688 -253.628906 42.753906 -252.9375 44.765625 -252.9375 Z M 62.703125 -252.9375 C 64.609375 -252.9375 66.28125 -253.628906 67.71875 -255.015625 C 69.15625 -256.398438 69.875 -258.097656 69.875 -260.109375 C 69.875 -262.023438 69.15625 -263.695312 67.71875 -265.125 C 66.28125 -266.5625 64.609375 -267.28125 62.703125 -267.28125 C 60.691406 -267.28125 58.988281 -266.5625 57.59375 -265.125 C 56.207031 -263.695312 55.515625 -262.023438 55.515625 -260.109375 C 55.515625 -258.097656 56.207031 -256.398438 57.59375 -255.015625 C 58.988281 -253.628906 60.691406 -252.9375 62.703125 -252.9375 Z M 80.625 -252.9375 C 82.539062 -252.9375 84.210938 -253.628906 85.640625 -255.015625 C 87.078125 -256.398438 87.796875 -258.097656 87.796875 -260.109375 C 87.796875 -262.023438 87.078125 -263.695312 85.640625 -265.125 C 84.210938 -266.5625 82.539062 -267.28125 80.625 -267.28125 C 78.613281 -267.28125 76.914062 -266.5625 75.53125 -265.125 C 74.144531 -263.695312 73.453125 -262.023438 73.453125 -260.109375 C 73.453125 -258.097656 74.144531 -256.398438 75.53125 -255.015625 C 76.914062 -253.628906 78.613281 -252.9375 80.625 -252.9375 Z M 98.5625 -252.9375 C 100.476562 -252.9375 102.148438 -253.628906 103.578125 -255.015625 C 105.015625 -256.398438 105.734375 -258.097656 105.734375 -260.109375 C 105.734375 -262.023438 105.015625 -263.695312 103.578125 -265.125 C 102.148438 -266.5625 100.476562 -267.28125 98.5625 -267.28125 C 96.550781 -267.28125 94.851562 -266.5625 93.46875 -265.125 C 92.082031 -263.695312 91.390625 -262.023438 91.390625 -260.109375 C 91.390625 -258.097656 92.082031 -256.398438 93.46875 -255.015625 C 94.851562 -253.628906 96.550781 -252.9375 98.5625 -252.9375 Z M 116.5 -252.9375 C 118.40625 -252.9375 120.078125 -253.628906 121.515625 -255.015625 C 122.953125 -256.398438 123.671875 -258.097656 123.671875 -260.109375 C 123.671875 -262.023438 122.953125 -263.695312 121.515625 -265.125 C 120.078125 -266.5625 118.40625 -267.28125 116.5 -267.28125 C 114.488281 -267.28125 112.789062 -266.5625 111.40625 -265.125 C 110.019531 -263.695312 109.328125 -262.023438 109.328125 -260.109375 C 109.328125 -258.097656 110.019531 -256.398438 111.40625 -255.015625 C 112.789062 -253.628906 114.488281 -252.9375 116.5 -252.9375 Z M 134.4375 -252.9375 C 136.34375 -252.9375 138.015625 -253.628906 139.453125 -255.015625 C 140.890625 -256.398438 141.609375 -258.097656 141.609375 -260.109375 C 141.609375 -262.023438 140.890625 -263.695312 139.453125 -265.125 C 138.015625 -266.5625 136.34375 -267.28125 134.4375 -267.28125 C 132.425781 -267.28125 130.722656 -266.5625 129.328125 -265.125 C 127.941406 -263.695312 127.25 -262.023438 127.25 -260.109375 C 127.25 -258.097656 127.941406 -256.398438 129.328125 -255.015625 C 130.722656 -253.628906 132.425781 -252.9375 134.4375 -252.9375 Z M 26.828125 -270.875 C 28.742188 -270.875 30.414062 -271.566406 31.84375 -272.953125 C 33.28125 -274.335938 34 -276.035156 34 -278.046875 C 34 -279.953125 33.28125 -281.625 31.84375 -283.0625 C 30.414062 -284.5 28.742188 -285.21875 26.828125 -285.21875 C 24.816406 -285.21875 23.117188 -284.5 21.734375 -283.0625 C 20.347656 -281.625 19.65625 -279.953125 19.65625 -278.046875 C 19.65625 -276.035156 20.347656 -274.335938 21.734375 -272.953125 C 23.117188 -271.566406 24.816406 -270.875 26.828125 -270.875 Z M 44.765625 -270.875 C 46.671875 -270.875 48.34375 -271.566406 49.78125 -272.953125 C 51.21875 -274.335938 51.9375 -276.035156 51.9375 -278.046875 C 51.9375 -279.953125 51.21875 -281.625 49.78125 -283.0625 C 48.34375 -284.5 46.671875 -285.21875 44.765625 -285.21875 C 42.753906 -285.21875 41.054688 -284.5 39.671875 -283.0625 C 38.285156 -281.625 37.59375 -279.953125 37.59375 -278.046875 C 37.59375 -276.035156 38.285156 -274.335938 39.671875 -272.953125 C 41.054688 -271.566406 42.753906 -270.875 44.765625 -270.875 Z M 62.703125 -270.875 C 64.609375 -270.875 66.28125 -271.566406 67.71875 -272.953125 C 69.15625 -274.335938 69.875 -276.035156 69.875 -278.046875 C 69.875 -279.953125 69.15625 -281.625 67.71875 -283.0625 C 66.28125 -284.5 64.609375 -285.21875 62.703125 -285.21875 C 60.691406 -285.21875 58.988281 -284.5 57.59375 -283.0625 C 56.207031 -281.625 55.515625 -279.953125 55.515625 -278.046875 C 55.515625 -276.035156 56.207031 -274.335938 57.59375 -272.953125 C 58.988281 -271.566406 60.691406 -270.875 62.703125 -270.875 Z M 80.625 -270.875 C 82.539062 -270.875 84.210938 -271.566406 85.640625 -272.953125 C 87.078125 -274.335938 87.796875 -276.035156 87.796875 -278.046875 C 87.796875 -279.953125 87.078125 -281.625 85.640625 -283.0625 C 84.210938 -284.5 82.539062 -285.21875 80.625 -285.21875 C 78.613281 -285.21875 76.914062 -284.5 75.53125 -283.0625 C 74.144531 -281.625 73.453125 -279.953125 73.453125 -278.046875 C 73.453125 -276.035156 74.144531 -274.335938 75.53125 -272.953125 C 76.914062 -271.566406 78.613281 -270.875 80.625 -270.875 Z M 98.5625 -270.875 C 100.476562 -270.875 102.148438 -271.566406 103.578125 -272.953125 C 105.015625 -274.335938 105.734375 -276.035156 105.734375 -278.046875 C 105.734375 -279.953125 105.015625 -281.625 103.578125 -283.0625 C 102.148438 -284.5 100.476562 -285.21875 98.5625 -285.21875 C 96.550781 -285.21875 94.851562 -284.5 93.46875 -283.0625 C 92.082031 -281.625 91.390625 -279.953125 91.390625 -278.046875 C 91.390625 -276.035156 92.082031 -274.335938 93.46875 -272.953125 C 94.851562 -271.566406 96.550781 -270.875 98.5625 -270.875 Z M 116.5 -270.875 C 118.40625 -270.875 120.078125 -271.566406 121.515625 -272.953125 C 122.953125 -274.335938 123.671875 -276.035156 123.671875 -278.046875 C 123.671875 -279.953125 122.953125 -281.625 121.515625 -283.0625 C 120.078125 -284.5 118.40625 -285.21875 116.5 -285.21875 C 114.488281 -285.21875 112.789062 -284.5 111.40625 -283.0625 C 110.019531 -281.625 109.328125 -279.953125 109.328125 -278.046875 C 109.328125 -276.035156 110.019531 -274.335938 111.40625 -272.953125 C 112.789062 -271.566406 114.488281 -270.875 116.5 -270.875 Z M 116.5 -270.875 "/></g></g></g></g></g></svg>